<svg xmlns="http://www.w3.org/2000/svg" width="1040" height="560" viewBox="0 0 1040 560">
<rect width="100%" height="100%" fill="#ffffff"/>
<text x="520.0" y="30" text-anchor="middle" font-family="Arial" font-size="22" font-weight="700">Cumulative Net PnL Contribution by Sentiment</text>
<text x="20" y="280.0" transform="rotate(-90 20 280.0)" text-anchor="middle" font-family="Arial" font-size="14">Cumulative Net PnL (USD)</text>
<line x1="90" y1="476.3" x2="870" y2="476.3" stroke="#222" stroke-width="1"/>
<polyline points="90.0,476.3 91.6,476.3 93.3,476.3 94.9,476.3 96.5,476.3 98.2,476.3 99.8,476.3 101.4,476.3 103.1,476.3 104.7,476.3 106.3,476.3 107.9,476.3 109.6,476.3 111.2,476.3 112.8,476.3 114.5,476.3 116.1,476.3 117.7,476.3 119.4,476.3 121.0,476.3 122.6,476.3 124.3,476.3 125.9,476.3 127.5,476.3 129.2,476.3 130.8,476.3 132.4,476.3 134.1,476.3 135.7,476.3 137.3,476.3 139.0,476.3 140.6,476.3 142.2,476.3 143.8,476.3 145.5,476.3 147.1,476.3 148.7,476.3 150.4,476.3 152.0,476.3 153.6,476.3 155.3,476.3 156.9,476.3 158.5,476.3 160.2,476.3 161.8,476.3 163.4,476.3 165.1,476.3 166.7,476.3 168.3,476.3 170.0,476.3 171.6,476.3 173.2,476.3 174.9,476.3 176.5,476.3 178.1,476.3 179.7,476.3 181.4,476.3 183.0,476.3 184.6,476.3 186.3,476.3 187.9,476.3 189.5,476.3 191.2,476.3 192.8,476.3 194.4,476.3 196.1,476.3 197.7,476.3 199.3,476.3 201.0,476.3 202.6,476.3 204.2,476.3 205.9,476.3 207.5,476.3 209.1,476.3 210.8,476.3 212.4,476.3 214.0,476.3 215.6,476.3 217.3,476.3 218.9,476.3 220.5,476.3 222.2,476.3 223.8,476.3 225.4,476.3 227.1,476.3 228.7,476.3 230.3,476.3 232.0,476.3 233.6,476.3 235.2,476.3 236.9,476.3 238.5,476.3 240.1,476.3 241.8,476.3 243.4,476.3 245.0,476.3 246.7,476.3 248.3,476.3 249.9,476.3 251.5,476.3 253.2,476.3 254.8,476.3 256.4,476.3 258.1,476.3 259.7,476.3 261.3,476.3 263.0,476.3 264.6,476.3 266.2,476.3 267.9,476.3 269.5,476.3 271.1,476.3 272.8,476.3 274.4,476.3 276.0,476.3 277.7,476.3 279.3,476.3 280.9,476.3 282.6,476.3 284.2,476.3 285.8,476.3 287.4,476.3 289.1,476.3 290.7,476.3 292.3,476.3 294.0,476.3 295.6,476.3 297.2,476.3 298.9,476.3 300.5,476.3 302.1,476.3 303.8,476.3 305.4,476.3 307.0,476.3 308.7,476.3 310.3,476.3 311.9,476.3 313.6,476.3 315.2,476.3 316.8,476.3 318.5,476.3 320.1,476.3 321.7,476.3 323.3,476.3 325.0,476.3 326.6,476.3 328.2,476.3 329.9,476.3 331.5,476.3 333.1,476.3 334.8,476.3 336.4,476.3 338.0,476.3 339.7,476.3 341.3,476.3 342.9,476.3 344.6,476.3 346.2,476.3 347.8,476.3 349.5,476.3 351.1,476.3 352.7,476.3 354.4,476.3 356.0,476.3 357.6,476.3 359.2,476.3 360.9,476.3 362.5,476.3 364.1,476.3 365.8,476.3 367.4,476.3 369.0,476.3 370.7,476.3 372.3,476.3 373.9,476.3 375.6,476.3 377.2,476.3 378.8,476.3 380.5,476.3 382.1,476.3 383.7,476.3 385.4,476.3 387.0,476.3 388.6,476.3 390.3,476.3 391.9,476.3 393.5,476.3 395.1,476.3 396.8,476.3 398.4,476.3 400.0,476.3 401.7,476.3 403.3,476.3 404.9,476.3 406.6,476.3 408.2,476.3 409.8,476.3 411.5,476.3 413.1,476.3 414.7,476.3 416.4,476.3 418.0,476.3 419.6,476.3 421.3,476.3 422.9,476.3 424.5,476.3 426.2,476.3 427.8,476.3 429.4,476.3 431.0,476.3 432.7,476.3 434.3,476.3 435.9,476.3 437.6,476.3 439.2,476.3 440.8,476.3 442.5,476.3 444.1,476.3 445.7,476.3 447.4,476.3 449.0,476.3 450.6,476.3 452.3,476.3 453.9,476.3 455.5,476.3 457.2,476.3 458.8,476.3 460.4,476.3 462.1,476.3 463.7,476.3 465.3,476.3 466.9,476.3 468.6,476.3 470.2,476.3 471.8,476.3 473.5,476.3 475.1,476.3 476.7,476.3 478.4,476.3 480.0,476.3 481.6,476.3 483.3,476.3 484.9,476.3 486.5,476.3 488.2,476.3 489.8,476.3 491.4,476.3 493.1,476.3 494.7,476.3 496.3,476.3 497.9,476.4 499.6,476.4 501.2,476.4 502.8,476.4 504.5,476.4 506.1,476.4 507.7,476.4 509.4,476.4 511.0,476.4 512.6,476.4 514.3,476.4 515.9,476.4 517.5,476.4 519.2,476.4 520.8,476.4 522.4,476.4 524.1,476.4 525.7,476.4 527.3,476.4 529.0,476.4 530.6,476.4 532.2,476.4 533.8,476.4 535.5,476.4 537.1,476.4 538.7,476.4 540.4,476.4 542.0,476.4 543.6,476.4 545.3,476.4 546.9,476.4 548.5,476.4 550.2,476.4 551.8,476.4 553.4,476.4 555.1,476.4 556.7,476.4 558.3,476.4 560.0,476.4 561.6,476.4 563.2,476.4 564.9,476.4 566.5,476.4 568.1,476.4 569.7,476.4 571.4,476.4 573.0,476.4 574.6,476.4 576.3,476.4 577.9,476.4 579.5,476.4 581.2,476.4 582.8,476.4 584.4,476.4 586.1,476.4 587.7,476.4 589.3,476.4 591.0,476.4 592.6,476.4 594.2,476.4 595.9,476.4 597.5,476.4 599.1,476.4 600.8,476.4 602.4,476.4 604.0,476.4 605.6,476.4 607.3,476.4 608.9,476.4 610.5,476.4 612.2,476.4 613.8,476.4 615.4,476.4 617.1,476.4 618.7,476.4 620.3,476.4 622.0,476.4 623.6,476.4 625.2,476.4 626.9,476.4 628.5,476.4 630.1,476.4 631.8,476.4 633.4,476.4 635.0,476.4 636.7,476.4 638.3,476.4 639.9,476.4 641.5,476.4 643.2,476.4 644.8,476.4 646.4,476.4 648.1,476.4 649.7,476.4 651.3,476.4 653.0,476.4 654.6,476.4 656.2,476.4 657.9,476.4 659.5,476.4 661.1,476.4 662.8,476.4 664.4,476.4 666.0,476.4 667.7,476.4 669.3,476.4 670.9,476.4 672.6,476.4 674.2,476.4 675.8,476.4 677.4,476.4 679.1,476.4 680.7,476.4 682.3,476.4 684.0,476.4 685.6,476.4 687.2,476.4 688.9,476.4 690.5,476.4 692.1,476.4 693.8,476.4 695.4,476.4 697.0,476.4 698.7,476.4 700.3,476.4 701.9,476.4 703.6,476.4 705.2,476.4 706.8,476.4 708.5,476.4 710.1,476.4 711.7,476.4 713.3,476.4 715.0,476.4 716.6,476.4 718.2,476.4 719.9,476.4 721.5,476.4 723.1,476.4 724.8,476.4 726.4,476.4 728.0,476.4 729.7,476.4 731.3,476.4 732.9,476.4 734.6,476.4 736.2,476.4 737.8,476.4 739.5,476.4 741.1,476.4 742.7,476.4 744.4,476.4 746.0,476.4 747.6,476.4 749.2,476.4 750.9,476.4 752.5,476.4 754.1,476.4 755.8,476.4 757.4,476.4 759.0,476.4 760.7,476.4 762.3,476.4 763.9,476.4 765.6,468.5 767.2,473.2 768.8,444.5 770.5,443.2 772.1,443.2 773.7,443.2 775.4,420.2 777.0,386.2 778.6,386.2 780.3,386.2 781.9,386.2 783.5,386.2 785.1,387.9 786.8,398.0 788.4,398.0 790.0,398.0 791.7,398.0 793.3,398.0 794.9,398.0 796.6,398.0 798.2,398.0 799.8,398.0 801.5,398.0 803.1,398.0 804.7,398.0 806.4,398.0 808.0,398.0 809.6,398.0 811.3,398.0 812.9,398.0 814.5,398.0 816.2,398.0 817.8,398.0 819.4,398.0 821.0,398.0 822.7,398.0 824.3,398.0 825.9,398.0 827.6,398.0 829.2,398.0 830.8,394.0 832.5,389.8 834.1,385.1 835.7,385.1 837.4,385.1 839.0,385.1 840.6,385.1 842.3,385.1 843.9,385.1 845.5,385.1 847.2,385.1 848.8,385.1 850.4,385.1 852.1,385.1 853.7,385.1 855.3,385.1 856.9,385.1 858.6,385.1 860.2,385.1 861.8,385.1 863.5,385.1 865.1,385.1 866.7,385.1 868.4,385.1 870.0,385.1" fill="none" stroke="#b94a48" stroke-width="2.2"/>
<rect x="895" y="60" width="14" height="14" fill="#b94a48"/>
<text x="915" y="72" font-family="Arial" font-size="13">Extreme Fear</text>
<polyline points="90.0,476.3 91.6,476.3 93.3,476.3 94.9,476.3 96.5,476.3 98.2,476.3 99.8,476.3 101.4,476.3 103.1,476.3 104.7,476.3 106.3,476.3 107.9,476.3 109.6,476.3 111.2,476.3 112.8,476.3 114.5,476.3 116.1,476.3 117.7,476.3 119.4,476.3 121.0,476.3 122.6,476.3 124.3,476.3 125.9,476.3 127.5,476.3 129.2,476.3 130.8,476.3 132.4,476.3 134.1,476.3 135.7,476.3 137.3,476.3 139.0,476.3 140.6,476.3 142.2,476.3 143.8,476.3 145.5,476.3 147.1,476.3 148.7,476.3 150.4,476.3 152.0,476.3 153.6,476.3 155.3,476.3 156.9,476.3 158.5,476.3 160.2,476.3 161.8,476.3 163.4,476.3 165.1,476.3 166.7,476.3 168.3,476.3 170.0,476.3 171.6,476.3 173.2,476.3 174.9,476.3 176.5,476.3 178.1,476.3 179.7,476.3 181.4,476.3 183.0,476.3 184.6,476.3 186.3,476.3 187.9,476.3 189.5,476.3 191.2,476.3 192.8,476.3 194.4,476.3 196.1,476.3 197.7,476.3 199.3,476.3 201.0,476.3 202.6,476.3 204.2,476.3 205.9,476.3 207.5,476.3 209.1,476.3 210.8,476.3 212.4,476.3 214.0,476.3 215.6,476.3 217.3,476.3 218.9,476.3 220.5,476.3 222.2,476.3 223.8,476.3 225.4,476.3 227.1,476.3 228.7,476.3 230.3,476.3 232.0,476.3 233.6,476.3 235.2,476.3 236.9,476.3 238.5,476.3 240.1,476.3 241.8,476.3 243.4,476.3 245.0,476.3 246.7,476.3 248.3,476.3 249.9,476.3 251.5,476.3 253.2,476.3 254.8,476.3 256.4,476.3 258.1,476.3 259.7,476.3 261.3,476.3 263.0,476.3 264.6,476.3 266.2,476.3 267.9,476.3 269.5,476.3 271.1,476.3 272.8,476.3 274.4,476.3 276.0,476.3 277.7,476.3 279.3,476.3 280.9,476.3 282.6,476.3 284.2,476.3 285.8,476.3 287.4,476.3 289.1,476.3 290.7,476.3 292.3,476.3 294.0,476.3 295.6,476.3 297.2,476.3 298.9,476.3 300.5,476.3 302.1,476.3 303.8,476.3 305.4,476.3 307.0,476.3 308.7,476.3 310.3,476.3 311.9,476.3 313.6,476.3 315.2,476.3 316.8,476.3 318.5,476.3 320.1,476.3 321.7,476.3 323.3,476.3 325.0,476.3 326.6,476.3 328.2,476.3 329.9,476.3 331.5,476.3 333.1,476.3 334.8,476.3 336.4,476.3 338.0,476.3 339.7,476.3 341.3,476.3 342.9,476.3 344.6,476.3 346.2,476.3 347.8,476.3 349.5,476.3 351.1,476.3 352.7,476.3 354.4,476.3 356.0,476.3 357.6,476.3 359.2,476.3 360.9,476.3 362.5,476.3 364.1,476.3 365.8,476.3 367.4,476.3 369.0,476.3 370.7,476.3 372.3,476.3 373.9,476.3 375.6,476.3 377.2,476.3 378.8,476.3 380.5,476.3 382.1,476.3 383.7,475.7 385.4,475.7 387.0,475.7 388.6,475.0 390.3,475.0 391.9,475.0 393.5,475.0 395.1,475.0 396.8,475.0 398.4,475.0 400.0,475.0 401.7,475.0 403.3,475.0 404.9,474.9 406.6,473.4 408.2,473.2 409.8,473.0 411.5,472.7 413.1,472.7 414.7,472.7 416.4,472.7 418.0,472.7 419.6,472.7 421.3,472.7 422.9,472.7 424.5,472.7 426.2,472.7 427.8,472.7 429.4,472.7 431.0,472.7 432.7,472.7 434.3,472.7 435.9,472.7 437.6,472.7 439.2,472.7 440.8,472.7 442.5,472.7 444.1,472.7 445.7,472.6 447.4,488.3 449.0,490.0 450.6,490.0 452.3,490.0 453.9,490.0 455.5,490.0 457.2,490.0 458.8,489.9 460.4,489.8 462.1,489.8 463.7,489.5 465.3,489.5 466.9,489.4 468.6,489.4 470.2,489.4 471.8,489.4 473.5,489.3 475.1,489.2 476.7,489.1 478.4,489.1 480.0,489.1 481.6,489.1 483.3,489.1 484.9,489.0 486.5,489.0 488.2,488.9 489.8,488.9 491.4,488.9 493.1,488.9 494.7,488.8 496.3,488.8 497.9,488.8 499.6,488.8 501.2,488.8 502.8,488.8 504.5,488.8 506.1,488.8 507.7,488.8 509.4,488.8 511.0,488.8 512.6,488.8 514.3,488.8 515.9,488.8 517.5,488.8 519.2,488.8 520.8,488.8 522.4,488.8 524.1,488.8 525.7,488.8 527.3,488.8 529.0,488.8 530.6,488.8 532.2,488.8 533.8,488.8 535.5,488.8 537.1,488.8 538.7,488.8 540.4,488.8 542.0,488.8 543.6,487.7 545.3,487.7 546.9,487.7 548.5,487.7 550.2,487.7 551.8,487.7 553.4,487.7 555.1,487.7 556.7,487.7 558.3,487.7 560.0,487.7 561.6,487.7 563.2,487.7 564.9,487.7 566.5,487.7 568.1,487.7 569.7,487.7 571.4,487.7 573.0,487.7 574.6,487.7 576.3,487.7 577.9,487.7 579.5,487.7 581.2,487.7 582.8,487.7 584.4,487.7 586.1,487.7 587.7,487.7 589.3,487.7 591.0,487.7 592.6,487.7 594.2,487.7 595.9,487.7 597.5,487.7 599.1,487.7 600.8,487.7 602.4,487.7 604.0,487.7 605.6,487.7 607.3,487.7 608.9,487.7 610.5,487.7 612.2,487.7 613.8,487.7 615.4,487.7 617.1,487.7 618.7,487.7 620.3,487.7 622.0,487.7 623.6,487.7 625.2,487.7 626.9,487.7 628.5,487.7 630.1,487.7 631.8,487.7 633.4,487.7 635.0,487.7 636.7,487.7 638.3,487.7 639.9,487.7 641.5,487.7 643.2,487.7 644.8,487.7 646.4,487.7 648.1,487.7 649.7,487.7 651.3,487.7 653.0,487.7 654.6,487.7 656.2,487.7 657.9,487.7 659.5,487.7 661.1,487.7 662.8,487.7 664.4,487.7 666.0,487.7 667.7,487.7 669.3,487.7 670.9,487.7 672.6,487.7 674.2,487.7 675.8,487.7 677.4,487.7 679.1,487.7 680.7,487.7 682.3,487.7 684.0,487.7 685.6,487.7 687.2,487.7 688.9,487.7 690.5,487.7 692.1,487.7 693.8,487.7 695.4,487.7 697.0,487.7 698.7,487.7 700.3,487.7 701.9,487.7 703.6,487.7 705.2,487.7 706.8,487.7 708.5,487.7 710.1,487.7 711.7,487.7 713.3,487.7 715.0,487.7 716.6,487.7 718.2,487.7 719.9,487.7 721.5,487.7 723.1,487.7 724.8,487.7 726.4,487.7 728.0,443.6 729.7,443.6 731.3,443.6 732.9,443.6 734.6,440.8 736.2,440.8 737.8,440.8 739.5,432.7 741.1,432.7 742.7,432.7 744.4,432.7 746.0,432.7 747.6,432.7 749.2,432.7 750.9,432.7 752.5,432.7 754.1,430.9 755.8,430.9 757.4,430.9 759.0,430.9 760.7,430.9 762.3,430.9 763.9,405.2 765.6,405.2 767.2,405.2 768.8,405.2 770.5,405.2 772.1,396.9 773.7,318.4 775.4,318.4 777.0,318.4 778.6,316.5 780.3,298.0 781.9,294.9 783.5,292.7 785.1,292.7 786.8,292.7 788.4,256.4 790.0,256.4 791.7,247.8 793.3,247.8 794.9,249.1 796.6,245.9 798.2,236.8 799.8,233.1 801.5,233.1 803.1,232.3 804.7,230.7 806.4,229.0 808.0,229.0 809.6,229.0 811.3,229.0 812.9,221.6 814.5,219.0 816.2,217.5 817.8,215.6 819.4,214.8 821.0,215.1 822.7,189.4 824.3,189.9 825.9,193.3 827.6,188.7 829.2,182.8 830.8,182.8 832.5,182.8 834.1,182.8 835.7,163.5 837.4,147.7 839.0,96.8 840.6,96.8 842.3,91.2 843.9,82.2 845.5,75.5 847.2,74.9 848.8,74.9 850.4,66.5 852.1,63.6 853.7,60.0 855.3,60.0 856.9,60.0 858.6,60.0 860.2,60.0 861.8,60.0 863.5,60.0 865.1,60.0 866.7,60.0 868.4,60.0 870.0,60.0" fill="none" stroke="#d9822b" stroke-width="2.2"/>
<rect x="895" y="86" width="14" height="14" fill="#d9822b"/>
<text x="915" y="98" font-family="Arial" font-size="13">Fear</text>
<polyline points="90.0,476.3 91.6,476.3 93.3,476.3 94.9,476.3 96.5,476.3 98.2,476.3 99.8,476.3 101.4,476.3 103.1,476.3 104.7,476.3 106.3,476.3 107.9,476.3 109.6,476.3 111.2,476.3 112.8,476.3 114.5,476.3 116.1,476.3 117.7,476.3 119.4,476.3 121.0,476.3 122.6,476.3 124.3,476.3 125.9,476.3 127.5,476.3 129.2,476.3 130.8,476.3 132.4,476.3 134.1,476.3 135.7,476.3 137.3,476.3 139.0,476.3 140.6,476.3 142.2,476.3 143.8,476.3 145.5,476.3 147.1,476.4 148.7,476.4 150.4,476.4 152.0,476.5 153.6,476.8 155.3,477.2 156.9,477.2 158.5,477.5 160.2,477.5 161.8,477.5 163.4,477.5 165.1,477.5 166.7,477.5 168.3,477.5 170.0,477.5 171.6,477.5 173.2,477.5 174.9,477.5 176.5,477.5 178.1,477.5 179.7,477.5 181.4,477.5 183.0,477.5 184.6,477.5 186.3,477.5 187.9,477.5 189.5,477.5 191.2,477.5 192.8,477.5 194.4,477.5 196.1,477.5 197.7,477.5 199.3,477.5 201.0,477.5 202.6,477.5 204.2,477.5 205.9,477.5 207.5,477.5 209.1,477.5 210.8,477.5 212.4,477.5 214.0,477.5 215.6,477.5 217.3,477.5 218.9,477.5 220.5,477.5 222.2,477.5 223.8,477.5 225.4,477.5 227.1,477.5 228.7,477.5 230.3,477.5 232.0,477.5 233.6,477.5 235.2,477.5 236.9,477.5 238.5,477.5 240.1,477.5 241.8,477.5 243.4,477.5 245.0,477.5 246.7,477.5 248.3,477.5 249.9,477.5 251.5,477.5 253.2,477.5 254.8,477.5 256.4,477.5 258.1,477.5 259.7,477.5 261.3,477.5 263.0,477.5 264.6,477.5 266.2,477.5 267.9,477.5 269.5,477.5 271.1,477.5 272.8,477.5 274.4,477.5 276.0,477.5 277.7,477.5 279.3,477.5 280.9,477.5 282.6,477.5 284.2,477.5 285.8,477.5 287.4,477.5 289.1,477.5 290.7,477.5 292.3,477.5 294.0,477.5 295.6,477.5 297.2,477.5 298.9,477.5 300.5,476.9 302.1,476.9 303.8,476.9 305.4,476.9 307.0,476.9 308.7,476.9 310.3,476.9 311.9,476.9 313.6,476.8 315.2,476.8 316.8,476.8 318.5,476.8 320.1,476.8 321.7,476.8 323.3,476.8 325.0,476.8 326.6,476.8 328.2,476.8 329.9,476.8 331.5,476.8 333.1,476.8 334.8,476.8 336.4,476.8 338.0,476.8 339.7,476.8 341.3,476.8 342.9,476.8 344.6,476.8 346.2,476.8 347.8,476.8 349.5,476.8 351.1,476.8 352.7,476.8 354.4,476.8 356.0,476.8 357.6,476.8 359.2,476.8 360.9,476.8 362.5,476.8 364.1,476.8 365.8,476.8 367.4,476.8 369.0,476.8 370.7,476.8 372.3,476.8 373.9,476.8 375.6,476.8 377.2,476.8 378.8,476.8 380.5,476.8 382.1,476.8 383.7,476.8 385.4,476.3 387.0,476.3 388.6,476.3 390.3,476.3 391.9,475.7 393.5,475.4 395.1,475.2 396.8,475.2 398.4,475.2 400.0,475.2 401.7,475.2 403.3,475.2 404.9,475.2 406.6,475.2 408.2,475.2 409.8,475.2 411.5,475.2 413.1,475.2 414.7,475.2 416.4,475.2 418.0,475.2 419.6,475.2 421.3,475.2 422.9,475.2 424.5,475.2 426.2,475.2 427.8,475.2 429.4,475.2 431.0,475.2 432.7,475.2 434.3,475.2 435.9,475.2 437.6,475.2 439.2,475.2 440.8,475.2 442.5,475.2 444.1,475.2 445.7,475.2 447.4,475.2 449.0,475.2 450.6,475.2 452.3,475.2 453.9,475.2 455.5,472.9 457.2,472.9 458.8,472.9 460.4,472.9 462.1,472.9 463.7,472.9 465.3,472.9 466.9,472.9 468.6,472.9 470.2,472.9 471.8,472.9 473.5,472.9 475.1,472.9 476.7,472.9 478.4,472.9 480.0,472.9 481.6,472.9 483.3,473.0 484.9,473.0 486.5,473.0 488.2,473.0 489.8,473.0 491.4,473.0 493.1,473.0 494.7,473.0 496.3,473.0 497.9,473.0 499.6,473.0 501.2,473.0 502.8,473.0 504.5,473.0 506.1,473.0 507.7,473.1 509.4,473.1 511.0,471.9 512.6,467.3 514.3,467.3 515.9,467.2 517.5,467.2 519.2,467.2 520.8,467.2 522.4,467.2 524.1,467.2 525.7,467.2 527.3,467.2 529.0,467.2 530.6,467.2 532.2,467.2 533.8,466.5 535.5,466.5 537.1,466.5 538.7,465.8 540.4,465.8 542.0,465.8 543.6,465.8 545.3,465.7 546.9,465.7 548.5,465.5 550.2,465.5 551.8,465.5 553.4,465.5 555.1,465.5 556.7,465.5 558.3,465.5 560.0,465.5 561.6,465.5 563.2,465.5 564.9,465.5 566.5,465.5 568.1,465.5 569.7,465.5 571.4,465.5 573.0,465.5 574.6,465.5 576.3,465.5 577.9,465.5 579.5,465.5 581.2,465.5 582.8,465.5 584.4,465.5 586.1,465.5 587.7,465.5 589.3,465.5 591.0,465.5 592.6,465.5 594.2,465.5 595.9,465.5 597.5,465.5 599.1,465.5 600.8,465.5 602.4,465.5 604.0,465.5 605.6,465.5 607.3,465.5 608.9,465.5 610.5,465.5 612.2,465.5 613.8,465.5 615.4,465.5 617.1,465.5 618.7,465.5 620.3,465.5 622.0,465.5 623.6,465.5 625.2,465.5 626.9,465.5 628.5,465.5 630.1,465.5 631.8,465.5 633.4,465.5 635.0,465.5 636.7,465.5 638.3,465.5 639.9,465.5 641.5,465.5 643.2,465.5 644.8,465.5 646.4,465.5 648.1,465.5 649.7,465.5 651.3,465.5 653.0,465.5 654.6,465.5 656.2,465.5 657.9,465.5 659.5,465.5 661.1,465.5 662.8,465.5 664.4,465.5 666.0,465.5 667.7,465.5 669.3,465.5 670.9,465.5 672.6,465.5 674.2,465.5 675.8,465.5 677.4,465.5 679.1,465.5 680.7,465.5 682.3,465.5 684.0,465.5 685.6,465.5 687.2,465.5 688.9,467.0 690.5,467.0 692.1,467.0 693.8,467.0 695.4,467.0 697.0,467.0 698.7,467.0 700.3,467.0 701.9,467.0 703.6,467.0 705.2,467.0 706.8,467.0 708.5,467.0 710.1,467.0 711.7,467.0 713.3,467.0 715.0,467.0 716.6,467.0 718.2,467.0 719.9,467.0 721.5,467.0 723.1,467.0 724.8,467.0 726.4,467.0 728.0,467.0 729.7,467.0 731.3,460.0 732.9,455.7 734.6,455.7 736.2,455.7 737.8,436.6 739.5,436.6 741.1,437.4 742.7,435.0 744.4,431.6 746.0,404.5 747.6,398.8 749.2,398.5 750.9,398.3 752.5,386.7 754.1,386.7 755.8,381.0 757.4,381.0 759.0,377.9 760.7,376.6 762.3,371.9 763.9,371.9 765.6,371.9 767.2,371.9 768.8,371.9 770.5,371.9 772.1,371.9 773.7,371.9 775.4,371.9 777.0,371.9 778.6,371.9 780.3,371.9 781.9,371.9 783.5,371.9 785.1,371.9 786.8,371.9 788.4,371.9 790.0,370.2 791.7,370.2 793.3,360.3 794.9,360.3 796.6,360.3 798.2,360.3 799.8,360.3 801.5,359.0 803.1,359.0 804.7,359.0 806.4,359.0 808.0,345.3 809.6,341.4 811.3,339.6 812.9,339.6 814.5,339.6 816.2,339.6 817.8,339.6 819.4,339.6 821.0,339.6 822.7,339.6 824.3,339.6 825.9,339.6 827.6,339.6 829.2,339.6 830.8,339.6 832.5,339.6 834.1,339.6 835.7,339.6 837.4,339.6 839.0,339.6 840.6,333.8 842.3,333.8 843.9,333.8 845.5,333.8 847.2,333.8 848.8,333.8 850.4,333.8 852.1,333.8 853.7,333.8 855.3,327.0 856.9,327.0 858.6,327.0 860.2,327.0 861.8,327.0 863.5,327.0 865.1,323.1 866.7,323.1 868.4,323.1 870.0,316.5" fill="none" stroke="#6c757d" stroke-width="2.2"/>
<rect x="895" y="112" width="14" height="14" fill="#6c757d"/>
<text x="915" y="124" font-family="Arial" font-size="13">Neutral</text>
<polyline points="90.0,476.3 91.6,476.3 93.3,476.3 94.9,476.3 96.5,476.3 98.2,476.3 99.8,476.3 101.4,476.2 103.1,476.2 104.7,476.1 106.3,476.1 107.9,476.1 109.6,475.9 111.2,476.0 112.8,476.1 114.5,476.2 116.1,476.2 117.7,476.1 119.4,476.2 121.0,476.1 122.6,476.0 124.3,476.0 125.9,476.0 127.5,476.0 129.2,476.1 130.8,476.2 132.4,476.2 134.1,476.5 135.7,476.5 137.3,476.7 139.0,476.7 140.6,477.0 142.2,476.9 143.8,476.9 145.5,476.9 147.1,476.9 148.7,476.9 150.4,476.7 152.0,476.7 153.6,476.7 155.3,476.7 156.9,476.7 158.5,476.7 160.2,476.7 161.8,476.7 163.4,477.0 165.1,477.0 166.7,477.0 168.3,477.0 170.0,477.0 171.6,477.0 173.2,477.1 174.9,477.1 176.5,477.0 178.1,476.9 179.7,476.8 181.4,476.8 183.0,476.3 184.6,476.1 186.3,475.4 187.9,475.4 189.5,475.3 191.2,475.3 192.8,474.9 194.4,474.9 196.1,474.4 197.7,474.4 199.3,474.4 201.0,473.8 202.6,473.8 204.2,473.8 205.9,473.8 207.5,473.8 209.1,473.8 210.8,473.8 212.4,473.8 214.0,473.8 215.6,473.8 217.3,473.8 218.9,473.8 220.5,473.8 222.2,473.8 223.8,473.8 225.4,473.8 227.1,473.8 228.7,473.8 230.3,473.8 232.0,473.8 233.6,473.8 235.2,473.8 236.9,473.0 238.5,473.0 240.1,472.9 241.8,472.9 243.4,472.9 245.0,472.9 246.7,472.9 248.3,472.9 249.9,472.9 251.5,472.9 253.2,472.9 254.8,472.9 256.4,472.8 258.1,472.8 259.7,472.8 261.3,472.8 263.0,472.8 264.6,472.8 266.2,472.8 267.9,472.8 269.5,472.8 271.1,472.8 272.8,472.0 274.4,476.6 276.0,476.2 277.7,475.9 279.3,475.5 280.9,475.3 282.6,475.3 284.2,475.3 285.8,475.2 287.4,475.2 289.1,475.2 290.7,475.2 292.3,474.7 294.0,474.7 295.6,474.6 297.2,474.6 298.9,474.6 300.5,474.6 302.1,474.6 303.8,474.6 305.4,474.5 307.0,474.4 308.7,474.4 310.3,474.2 311.9,474.0 313.6,474.0 315.2,474.0 316.8,473.7 318.5,473.6 320.1,473.5 321.7,473.5 323.3,473.0 325.0,473.0 326.6,473.0 328.2,473.0 329.9,473.0 331.5,473.0 333.1,472.9 334.8,472.9 336.4,472.9 338.0,472.8 339.7,472.8 341.3,472.7 342.9,472.7 344.6,472.7 346.2,472.7 347.8,472.6 349.5,472.6 351.1,472.6 352.7,472.6 354.4,472.6 356.0,472.6 357.6,472.6 359.2,472.6 360.9,472.1 362.5,474.9 364.1,474.0 365.8,472.7 367.4,472.3 369.0,472.3 370.7,471.0 372.3,471.0 373.9,470.4 375.6,463.0 377.2,463.0 378.8,463.0 380.5,463.0 382.1,463.0 383.7,463.0 385.4,463.0 387.0,463.0 388.6,463.0 390.3,463.0 391.9,463.0 393.5,463.0 395.1,463.0 396.8,463.0 398.4,463.0 400.0,463.0 401.7,463.0 403.3,463.0 404.9,463.0 406.6,463.0 408.2,463.0 409.8,463.0 411.5,463.0 413.1,463.0 414.7,463.0 416.4,463.0 418.0,462.8 419.6,462.3 421.3,462.0 422.9,461.7 424.5,462.1 426.2,461.9 427.8,450.5 429.4,450.4 431.0,450.3 432.7,450.0 434.3,449.2 435.9,449.2 437.6,449.1 439.2,449.1 440.8,449.0 442.5,449.0 444.1,449.0 445.7,449.0 447.4,449.0 449.0,449.0 450.6,449.0 452.3,449.0 453.9,449.0 455.5,449.0 457.2,449.0 458.8,449.0 460.4,449.0 462.1,449.0 463.7,449.0 465.3,449.0 466.9,449.0 468.6,449.0 470.2,449.0 471.8,449.0 473.5,449.0 475.1,449.0 476.7,449.0 478.4,449.0 480.0,449.0 481.6,448.9 483.3,448.9 484.9,448.9 486.5,448.9 488.2,448.9 489.8,448.9 491.4,448.9 493.1,448.9 494.7,448.9 496.3,448.9 497.9,448.9 499.6,448.9 501.2,448.9 502.8,448.9 504.5,448.9 506.1,448.9 507.7,448.9 509.4,448.9 511.0,448.9 512.6,448.9 514.3,448.9 515.9,448.9 517.5,448.9 519.2,448.9 520.8,448.9 522.4,448.9 524.1,448.9 525.7,448.6 527.3,448.6 529.0,448.6 530.6,448.6 532.2,448.6 533.8,448.6 535.5,448.6 537.1,448.6 538.7,448.6 540.4,448.6 542.0,448.6 543.6,448.6 545.3,448.6 546.9,448.6 548.5,448.6 550.2,448.5 551.8,448.4 553.4,448.4 555.1,448.4 556.7,448.4 558.3,448.4 560.0,448.1 561.6,448.1 563.2,448.1 564.9,446.4 566.5,446.3 568.1,446.3 569.7,446.2 571.4,446.2 573.0,446.2 574.6,446.2 576.3,446.2 577.9,446.2 579.5,445.9 581.2,445.8 582.8,445.5 584.4,445.5 586.1,445.5 587.7,445.5 589.3,445.5 591.0,445.5 592.6,445.5 594.2,445.5 595.9,445.5 597.5,445.5 599.1,445.5 600.8,445.5 602.4,445.5 604.0,445.5 605.6,445.5 607.3,445.5 608.9,445.5 610.5,445.5 612.2,445.5 613.8,445.5 615.4,445.5 617.1,445.5 618.7,445.5 620.3,445.5 622.0,445.5 623.6,445.5 625.2,445.5 626.9,445.5 628.5,445.5 630.1,445.5 631.8,457.4 633.4,457.4 635.0,457.4 636.7,457.4 638.3,457.4 639.9,416.7 641.5,416.7 643.2,416.7 644.8,416.7 646.4,416.7 648.1,416.7 649.7,416.7 651.3,416.7 653.0,416.7 654.6,384.4 656.2,365.3 657.9,320.5 659.5,324.4 661.1,322.5 662.8,322.5 664.4,322.5 666.0,322.1 667.7,322.0 669.3,321.7 670.9,320.5 672.6,319.9 674.2,321.1 675.8,320.0 677.4,319.3 679.1,319.0 680.7,318.6 682.3,318.6 684.0,318.6 685.6,302.1 687.2,296.1 688.9,296.1 690.5,295.9 692.1,295.2 693.8,294.1 695.4,292.1 697.0,290.3 698.7,290.3 700.3,290.3 701.9,290.3 703.6,290.3 705.2,290.3 706.8,290.3 708.5,290.3 710.1,290.3 711.7,290.3 713.3,290.3 715.0,285.1 716.6,279.9 718.2,277.6 719.9,274.7 721.5,271.9 723.1,271.9 724.8,267.8 726.4,247.2 728.0,247.2 729.7,194.5 731.3,194.5 732.9,194.5 734.6,194.5 736.2,194.5 737.8,194.5 739.5,194.5 741.1,194.5 742.7,194.5 744.4,194.5 746.0,194.5 747.6,194.5 749.2,194.5 750.9,194.5 752.5,194.5 754.1,194.5 755.8,194.5 757.4,179.4 759.0,179.4 760.7,179.4 762.3,179.4 763.9,179.4 765.6,179.4 767.2,179.4 768.8,179.4 770.5,179.4 772.1,179.4 773.7,179.4 775.4,179.4 777.0,179.4 778.6,179.4 780.3,179.4 781.9,179.4 783.5,179.4 785.1,179.4 786.8,179.4 788.4,179.4 790.0,179.4 791.7,179.4 793.3,179.4 794.9,179.4 796.6,179.4 798.2,179.4 799.8,179.4 801.5,179.4 803.1,179.4 804.7,179.4 806.4,179.4 808.0,179.4 809.6,179.4 811.3,179.4 812.9,179.4 814.5,179.4 816.2,179.4 817.8,179.4 819.4,179.4 821.0,179.4 822.7,179.4 824.3,179.4 825.9,179.4 827.6,179.4 829.2,179.4 830.8,179.4 832.5,179.4 834.1,179.4 835.7,179.4 837.4,179.4 839.0,179.4 840.6,179.4 842.3,179.4 843.9,179.4 845.5,179.4 847.2,179.4 848.8,179.4 850.4,179.4 852.1,179.4 853.7,179.4 855.3,179.4 856.9,233.7 858.6,228.2 860.2,226.4 861.8,227.3 863.5,227.0 865.1,227.0 866.7,211.6 868.4,210.2 870.0,210.2" fill="none" stroke="#2f9e44" stroke-width="2.2"/>
<rect x="895" y="138" width="14" height="14" fill="#2f9e44"/>
<text x="915" y="150" font-family="Arial" font-size="13">Greed</text>
<polyline points="90.0,476.3 91.6,476.3 93.3,476.3 94.9,476.3 96.5,476.3 98.2,476.3 99.8,476.3 101.4,476.3 103.1,476.3 104.7,476.3 106.3,476.3 107.9,476.3 109.6,476.3 111.2,476.3 112.8,476.3 114.5,476.3 116.1,476.3 117.7,476.3 119.4,476.3 121.0,476.3 122.6,476.3 124.3,476.3 125.9,476.3 127.5,476.3 129.2,476.3 130.8,476.3 132.4,476.4 134.1,476.4 135.7,476.5 137.3,476.5 139.0,476.5 140.6,476.5 142.2,476.5 143.8,476.5 145.5,476.5 147.1,476.5 148.7,476.5 150.4,476.5 152.0,476.5 153.6,476.5 155.3,476.5 156.9,476.5 158.5,476.5 160.2,476.5 161.8,476.5 163.4,476.5 165.1,476.5 166.7,476.5 168.3,476.5 170.0,476.5 171.6,476.5 173.2,476.5 174.9,476.5 176.5,476.5 178.1,476.5 179.7,476.5 181.4,476.4 183.0,476.4 184.6,476.4 186.3,476.4 187.9,476.2 189.5,476.2 191.2,475.6 192.8,475.6 194.4,475.4 196.1,475.4 197.7,475.2 199.3,475.2 201.0,475.2 202.6,475.1 204.2,474.8 205.9,473.5 207.5,472.4 209.1,472.4 210.8,471.4 212.4,467.8 214.0,465.3 215.6,464.4 217.3,463.9 218.9,462.6 220.5,462.3 222.2,461.8 223.8,461.4 225.4,461.4 227.1,461.0 228.7,460.2 230.3,460.2 232.0,460.1 233.6,459.9 235.2,459.9 236.9,459.9 238.5,459.6 240.1,459.6 241.8,459.4 243.4,459.0 245.0,459.0 246.7,459.0 248.3,458.8 249.9,458.7 251.5,458.6 253.2,458.3 254.8,458.2 256.4,458.2 258.1,458.2 259.7,456.8 261.3,456.8 263.0,456.8 264.6,456.7 266.2,456.7 267.9,456.0 269.5,456.0 271.1,456.0 272.8,456.0 274.4,456.0 276.0,456.0 277.7,456.0 279.3,456.0 280.9,456.0 282.6,456.0 284.2,456.0 285.8,456.0 287.4,456.0 289.1,456.0 290.7,456.0 292.3,456.0 294.0,456.0 295.6,456.0 297.2,456.0 298.9,456.0 300.5,456.0 302.1,456.0 303.8,456.0 305.4,456.0 307.0,456.0 308.7,456.0 310.3,456.0 311.9,456.0 313.6,456.0 315.2,456.0 316.8,456.0 318.5,456.0 320.1,456.0 321.7,456.0 323.3,456.0 325.0,456.0 326.6,456.0 328.2,455.2 329.9,455.2 331.5,455.1 333.1,455.1 334.8,455.1 336.4,455.0 338.0,455.0 339.7,455.0 341.3,455.0 342.9,455.0 344.6,455.0 346.2,455.0 347.8,455.0 349.5,455.0 351.1,455.0 352.7,455.0 354.4,453.9 356.0,453.9 357.6,453.9 359.2,453.9 360.9,453.9 362.5,453.9 364.1,453.9 365.8,453.9 367.4,453.9 369.0,453.9 370.7,453.9 372.3,453.9 373.9,453.9 375.6,453.9 377.2,453.9 378.8,453.9 380.5,453.9 382.1,453.9 383.7,453.9 385.4,453.9 387.0,453.9 388.6,453.9 390.3,453.9 391.9,453.9 393.5,453.9 395.1,453.9 396.8,453.9 398.4,453.9 400.0,453.9 401.7,453.9 403.3,453.9 404.9,453.9 406.6,453.9 408.2,453.9 409.8,453.9 411.5,453.9 413.1,453.9 414.7,453.9 416.4,453.9 418.0,453.9 419.6,453.9 421.3,453.9 422.9,453.9 424.5,453.9 426.2,453.9 427.8,453.9 429.4,453.9 431.0,453.9 432.7,453.9 434.3,453.9 435.9,453.9 437.6,453.9 439.2,453.9 440.8,453.9 442.5,453.9 444.1,453.9 445.7,453.9 447.4,453.9 449.0,453.9 450.6,453.9 452.3,453.9 453.9,453.9 455.5,453.9 457.2,453.9 458.8,453.9 460.4,453.9 462.1,453.9 463.7,453.9 465.3,453.9 466.9,453.9 468.6,453.9 470.2,453.9 471.8,453.9 473.5,453.9 475.1,453.9 476.7,453.9 478.4,453.9 480.0,453.9 481.6,453.9 483.3,453.9 484.9,453.9 486.5,453.9 488.2,453.9 489.8,453.9 491.4,453.9 493.1,453.9 494.7,453.9 496.3,453.9 497.9,453.9 499.6,453.9 501.2,453.9 502.8,453.9 504.5,453.9 506.1,453.9 507.7,453.9 509.4,453.9 511.0,453.9 512.6,453.9 514.3,453.9 515.9,453.9 517.5,453.9 519.2,453.9 520.8,453.9 522.4,453.9 524.1,453.9 525.7,453.9 527.3,453.9 529.0,453.9 530.6,453.9 532.2,453.9 533.8,453.9 535.5,453.9 537.1,453.9 538.7,453.9 540.4,453.9 542.0,453.9 543.6,453.9 545.3,453.9 546.9,453.9 548.5,453.9 550.2,453.9 551.8,453.9 553.4,453.9 555.1,453.9 556.7,453.9 558.3,453.9 560.0,453.9 561.6,453.9 563.2,453.9 564.9,453.9 566.5,453.9 568.1,453.9 569.7,453.9 571.4,453.9 573.0,453.8 574.6,453.7 576.3,453.7 577.9,453.7 579.5,453.7 581.2,453.7 582.8,453.7 584.4,453.1 586.1,453.1 587.7,453.1 589.3,453.0 591.0,452.2 592.6,451.8 594.2,450.8 595.9,450.3 597.5,449.8 599.1,449.5 600.8,449.4 602.4,448.9 604.0,448.5 605.6,448.1 607.3,447.9 608.9,450.3 610.5,449.9 612.2,449.8 613.8,449.1 615.4,449.0 617.1,449.4 618.7,465.7 620.3,443.2 622.0,438.5 623.6,433.3 625.2,431.0 626.9,428.0 628.5,390.7 630.1,381.6 631.8,381.6 633.4,370.6 635.0,368.6 636.7,367.9 638.3,362.9 639.9,362.9 641.5,286.6 643.2,282.6 644.8,261.2 646.4,248.8 648.1,227.6 649.7,199.7 651.3,198.0 653.0,190.2 654.6,190.2 656.2,190.2 657.9,190.2 659.5,190.2 661.1,190.2 662.8,190.2 664.4,182.5 666.0,182.5 667.7,182.5 669.3,182.5 670.9,182.5 672.6,182.5 674.2,182.5 675.8,182.5 677.4,182.5 679.1,182.5 680.7,182.5 682.3,181.8 684.0,179.8 685.6,179.8 687.2,179.8 688.9,179.8 690.5,179.8 692.1,179.8 693.8,179.8 695.4,179.8 697.0,179.8 698.7,177.2 700.3,176.4 701.9,176.4 703.6,165.5 705.2,154.6 706.8,153.3 708.5,150.7 710.1,138.0 711.7,136.6 713.3,138.0 715.0,138.0 716.6,138.0 718.2,138.0 719.9,138.0 721.5,138.0 723.1,133.5 724.8,133.5 726.4,133.5 728.0,133.5 729.7,133.5 731.3,133.5 732.9,133.5 734.6,133.5 736.2,133.5 737.8,133.5 739.5,133.5 741.1,133.5 742.7,133.5 744.4,133.5 746.0,133.5 747.6,133.5 749.2,133.5 750.9,133.5 752.5,133.5 754.1,133.5 755.8,133.5 757.4,133.5 759.0,133.5 760.7,133.5 762.3,133.5 763.9,133.5 765.6,133.5 767.2,133.5 768.8,133.5 770.5,133.5 772.1,133.5 773.7,133.5 775.4,133.5 777.0,133.5 778.6,133.5 780.3,133.5 781.9,133.5 783.5,133.5 785.1,133.5 786.8,133.5 788.4,133.5 790.0,133.5 791.7,133.5 793.3,133.5 794.9,133.5 796.6,133.5 798.2,133.5 799.8,133.5 801.5,133.5 803.1,133.5 804.7,133.5 806.4,133.5 808.0,133.5 809.6,133.5 811.3,133.5 812.9,133.5 814.5,133.5 816.2,133.5 817.8,133.5 819.4,133.5 821.0,133.5 822.7,133.5 824.3,133.5 825.9,133.5 827.6,133.5 829.2,133.5 830.8,133.5 832.5,133.5 834.1,133.5 835.7,133.5 837.4,133.5 839.0,133.5 840.6,133.5 842.3,133.5 843.9,133.5 845.5,133.5 847.2,133.5 848.8,133.5 850.4,133.5 852.1,133.5 853.7,133.5 855.3,133.5 856.9,133.5 858.6,133.5 860.2,133.5 861.8,133.5 863.5,133.5 865.1,133.5 866.7,133.5 868.4,133.5 870.0,133.5" fill="none" stroke="#087f5b" stroke-width="2.2"/>
<rect x="895" y="164" width="14" height="14" fill="#087f5b"/>
<text x="915" y="176" font-family="Arial" font-size="13">Extreme Greed</text>
<line x1="90" y1="490.0" x2="870" y2="490.0" stroke="#e9ecef" stroke-width="1"/>
<text x="82" y="494.0" text-anchor="end" font-family="Arial" font-size="11">-107,464</text>
<line x1="90" y1="382.5" x2="870" y2="382.5" stroke="#e9ecef" stroke-width="1"/>
<text x="82" y="386.5" text-anchor="end" font-family="Arial" font-size="11">735,577</text>
<line x1="90" y1="275.0" x2="870" y2="275.0" stroke="#e9ecef" stroke-width="1"/>
<text x="82" y="279.0" text-anchor="end" font-family="Arial" font-size="11">1,578,617</text>
<line x1="90" y1="167.5" x2="870" y2="167.5" stroke="#e9ecef" stroke-width="1"/>
<text x="82" y="171.5" text-anchor="end" font-family="Arial" font-size="11">2,421,658</text>
<line x1="90" y1="60.0" x2="870" y2="60.0" stroke="#e9ecef" stroke-width="1"/>
<text x="82" y="64.0" text-anchor="end" font-family="Arial" font-size="11">3,264,698</text>
<text x="90" y="535" font-family="Arial" font-size="12">2023-05-01</text>
<text x="870" y="535" text-anchor="end" font-family="Arial" font-size="12">2025-05-01</text>
</svg>