<svg xmlns="http://www.w3.org/2000/svg" width="920" height="520" viewBox="0 0 920 520">
<rect width="100%" height="100%" fill="#ffffff"/>
<text x="460.0" y="30" text-anchor="middle" font-family="Arial" font-size="22" font-weight="700">Closed-Fill Win Rate by Sentiment</text>
<text x="20" y="260.0" transform="rotate(-90 20 260.0)" text-anchor="middle" font-family="Arial" font-size="14">Win Rate (%)</text>
<line x1="90" y1="410.0" x2="890" y2="410.0" stroke="#222" stroke-width="1"/>
<rect x="120.4" y="110.8" width="99.2" height="299.2" fill="#b94a48"/>
<text x="170.0" y="102.8" text-anchor="middle" font-family="Arial" font-size="12">76</text>
<text x="170.0" y="462" transform="rotate(-25 170.0 462)" text-anchor="end" font-family="Arial" font-size="13">Extreme Fear</text>
<rect x="280.4" y="67.4" width="99.2" height="342.6" fill="#d9822b"/>
<text x="330.0" y="59.4" text-anchor="middle" font-family="Arial" font-size="12">87</text>
<text x="330.0" y="462" transform="rotate(-25 330.0 462)" text-anchor="end" font-family="Arial" font-size="13">Fear</text>
<rect x="440.4" y="86.6" width="99.2" height="323.4" fill="#6c757d"/>
<text x="490.0" y="78.6" text-anchor="middle" font-family="Arial" font-size="12">82</text>
<text x="490.0" y="462" transform="rotate(-25 490.0 462)" text-anchor="end" font-family="Arial" font-size="13">Neutral</text>
<rect x="600.4" y="108.2" width="99.2" height="301.8" fill="#2f9e44"/>
<text x="650.0" y="100.2" text-anchor="middle" font-family="Arial" font-size="12">77</text>
<text x="650.0" y="462" transform="rotate(-25 650.0 462)" text-anchor="end" font-family="Arial" font-size="13">Greed</text>
<rect x="760.4" y="60.0" width="99.2" height="350.0" fill="#087f5b"/>
<text x="810.0" y="52.0" text-anchor="middle" font-family="Arial" font-size="12">89</text>
<text x="810.0" y="462" transform="rotate(-25 810.0 462)" text-anchor="end" font-family="Arial" font-size="13">Extreme Greed</text>
<line x1="90" y1="410.0" x2="890" y2="410.0" stroke="#e9ecef" stroke-width="1"/>
<text x="82" y="414.0" text-anchor="end" font-family="Arial" font-size="11">0</text>
<line x1="90" y1="322.5" x2="890" y2="322.5" stroke="#e9ecef" stroke-width="1"/>
<text x="82" y="326.5" text-anchor="end" font-family="Arial" font-size="11">22</text>
<line x1="90" y1="235.0" x2="890" y2="235.0" stroke="#e9ecef" stroke-width="1"/>
<text x="82" y="239.0" text-anchor="end" font-family="Arial" font-size="11">45</text>
<line x1="90" y1="147.5" x2="890" y2="147.5" stroke="#e9ecef" stroke-width="1"/>
<text x="82" y="151.5" text-anchor="end" font-family="Arial" font-size="11">67</text>
<line x1="90" y1="60.0" x2="890" y2="60.0" stroke="#e9ecef" stroke-width="1"/>
<text x="82" y="64.0" text-anchor="end" font-family="Arial" font-size="11">89</text>
</svg>